<svg width="38" height="41" viewBox="0 0 38 41" fill="none" xmlns="http://www.w3.org/2000/svg">
<circle cx="19" cy="22" r="19" fill="#B76464"/>
<path d="M31.9986 35.1726C31.6674 29.4154 27.9057 24.6256 22.8194 22.9979C25.9002 21.4945 28.0397 18.2274 28.0397 14.4398C28.0397 9.22657 23.9915 5 18.9982 5C14.0048 5 9.9566 9.22657 9.9566 14.4398C9.9566 18.2274 12.0961 21.4945 15.1806 22.9979C10.0943 24.6256 6.33256 29.4154 6.00141 35.1726C5.97536 35.6193 6.31395 36 6.74557 36C7.13625 36 7.46368 35.6814 7.48972 35.2736C7.8432 28.9609 12.8625 23.9574 18.9982 23.9574C25.1337 23.9574 30.153 28.9609 30.5102 35.2736C30.5326 35.6814 30.86 36 31.2544 36C31.686 36 32.0245 35.6193 31.9986 35.1726ZM11.4449 14.4398C11.4449 10.0851 14.8271 6.55388 18.9982 6.55388C23.1691 6.55388 26.5513 10.0851 26.5513 14.4398C26.5513 18.7946 23.1691 22.3259 18.9982 22.3259C14.8271 22.3259 11.4449 18.7946 11.4449 14.4398Z" fill="#5B0202"/>
</svg>
