<svg width="38" height="38" viewBox="0 0 38 38" fill="none" xmlns="http://www.w3.org/2000/svg">
<circle cx="19" cy="19" r="19" fill="#B76464"/>
<path d="M7 18V23C7 23.6914 7.55859 24.25 8.25 24.25H9.5V16.75H8.25C7.55859 16.75 7 17.3086 7 18ZM25.125 11.75H20.75V9.25C20.75 8.55859 20.1914 8 19.5 8C18.8086 8 18.25 8.55859 18.25 9.25V11.75H13.875C12.1484 11.75 10.75 13.1484 10.75 14.875V25.5C10.75 26.8789 11.8711 28 13.25 28H25.75C27.1289 28 28.25 26.8789 28.25 25.5V14.875C28.25 13.1484 26.8516 11.75 25.125 11.75ZM17 24.25H14.5V23H17V24.25ZM15.75 19.5625C14.8867 19.5625 14.1875 18.8633 14.1875 18C14.1875 17.1367 14.8867 16.4375 15.75 16.4375C16.6133 16.4375 17.3125 17.1367 17.3125 18C17.3125 18.8633 16.6133 19.5625 15.75 19.5625ZM20.75 24.25H18.25V23H20.75V24.25ZM24.5 24.25H22V23H24.5V24.25ZM23.25 19.5625C22.3867 19.5625 21.6875 18.8633 21.6875 18C21.6875 17.1367 22.3867 16.4375 23.25 16.4375C24.1133 16.4375 24.8125 17.1367 24.8125 18C24.8125 18.8633 24.1133 19.5625 23.25 19.5625ZM30.75 16.75H29.5V24.25H30.75C31.4414 24.25 32 23.6914 32 23V18C32 17.3086 31.4414 16.75 30.75 16.75Z" fill="#5B0202"/>
</svg>
